# xmcd
#
# Track frame offsets:
#	150
#	14635
#	46870
#	63048
#	97219
#	112917
#	129117
#	139877
#	150901
#	175467
#	189169
#	211277
#	224562
#	241771
#	255612
#	264844
#	276539
#	299810
#	320254
#	333179
#
# Disc length: 4650 seconds
#
# Revision: 1
# Processed by: cddbd v1.5.1PL0 Copyright (c) Steve Scherf et al.
# Submitted via: audiograbber 1.83.01
#
DISCID=25122814
DTITLE=Albert C. Humphrey - Blues is Life
DYEAR=1900
DGENRE=Blues
TTITLE0=Just keep lovin' her
TTITLE1=Denny's playing the Blues
TTITLE2=Gone, gone, gone
TTITLE3=Blues, Blues, Blues
TTITLE4=Freight Train
TTITLE5=Missisippi Fever
TTITLE6=John Henry
TTITLE7=Judy Bell
TTITLE8=Sea of Tears
TTITLE9=Louisiana Woman
TTITLE10=If I had my way
TTITLE11=So much trouble
TTITLE12=Papa told me too
TTITLE13=Country Boy
TTITLE14=Meet me in the bottom
TTITLE15=Goin back to Arkansas
TTITLE16=Try me one more time
TTITLE17=I need you Baby
TTITLE18=That fast rollin' Santa Fe
TTITLE19=Time to go
EXTD=
EXTT0=
EXTT1=
EXTT2=
EXTT3=
EXTT4=
EXTT5=
EXTT6=
EXTT7=
EXTT8=
EXTT9=
EXTT10=
EXTT11=
EXTT12=
EXTT13=
EXTT14=
EXTT15=
EXTT16=
EXTT17=
EXTT18=
EXTT19=
PLAYORDER=
